<mxfile host="app.diagrams.net" agent="Mozilla/5.0 (Windows NT 10.0; Win64; x64) AppleWebKit/537.36 (KHTML, like Gecko) Chrome/132.0.0.0 Safari/537.36" version="26.0.10">
  <diagram name="Page-1" id="QgndFhHgoBatOzkgE3uP">
    <mxGraphModel dx="521" dy="522" grid="1" gridSize="10" guides="1" tooltips="1" connect="1" arrows="1" fold="1" page="1" pageScale="1" pageWidth="827" pageHeight="1169" math="0" shadow="0">
      <root>
        <mxCell id="0" />
        <mxCell id="1" parent="0" />
        <mxCell id="2Ql1dZGvthfYiB3fdjjj-16" style="edgeStyle=orthogonalEdgeStyle;rounded=0;orthogonalLoop=1;jettySize=auto;html=1;exitX=0.5;exitY=1;exitDx=0;exitDy=0;" edge="1" parent="1" source="2Ql1dZGvthfYiB3fdjjj-3" target="2Ql1dZGvthfYiB3fdjjj-5">
          <mxGeometry relative="1" as="geometry" />
        </mxCell>
        <mxCell id="2Ql1dZGvthfYiB3fdjjj-3" value="Start&lt;div&gt;(Python Code)&lt;/div&gt;" style="ellipse;whiteSpace=wrap;html=1;" vertex="1" parent="1">
          <mxGeometry x="120" y="160" width="120" height="80" as="geometry" />
        </mxCell>
        <mxCell id="2Ql1dZGvthfYiB3fdjjj-15" style="edgeStyle=orthogonalEdgeStyle;rounded=0;orthogonalLoop=1;jettySize=auto;html=1;exitX=0.5;exitY=1;exitDx=0;exitDy=0;entryX=0.5;entryY=0;entryDx=0;entryDy=0;" edge="1" parent="1" source="2Ql1dZGvthfYiB3fdjjj-5" target="2Ql1dZGvthfYiB3fdjjj-6">
          <mxGeometry relative="1" as="geometry" />
        </mxCell>
        <mxCell id="2Ql1dZGvthfYiB3fdjjj-5" value="Code is translated into JSON" style="rounded=1;whiteSpace=wrap;html=1;" vertex="1" parent="1">
          <mxGeometry x="120" y="270" width="120" height="60" as="geometry" />
        </mxCell>
        <mxCell id="2Ql1dZGvthfYiB3fdjjj-14" style="edgeStyle=orthogonalEdgeStyle;rounded=0;orthogonalLoop=1;jettySize=auto;html=1;exitX=0.5;exitY=1;exitDx=0;exitDy=0;" edge="1" parent="1" source="2Ql1dZGvthfYiB3fdjjj-6" target="2Ql1dZGvthfYiB3fdjjj-7">
          <mxGeometry relative="1" as="geometry" />
        </mxCell>
        <mxCell id="2Ql1dZGvthfYiB3fdjjj-6" value="Code Passed To BokehJS" style="rounded=1;whiteSpace=wrap;html=1;" vertex="1" parent="1">
          <mxGeometry x="120" y="360" width="120" height="60" as="geometry" />
        </mxCell>
        <mxCell id="2Ql1dZGvthfYiB3fdjjj-13" style="edgeStyle=orthogonalEdgeStyle;rounded=0;orthogonalLoop=1;jettySize=auto;html=1;entryX=0.5;entryY=0;entryDx=0;entryDy=0;" edge="1" parent="1" source="2Ql1dZGvthfYiB3fdjjj-7" target="2Ql1dZGvthfYiB3fdjjj-9">
          <mxGeometry relative="1" as="geometry" />
        </mxCell>
        <mxCell id="2Ql1dZGvthfYiB3fdjjj-7" value="BokehJS Handles Display" style="rounded=1;whiteSpace=wrap;html=1;" vertex="1" parent="1">
          <mxGeometry x="120" y="440" width="120" height="60" as="geometry" />
        </mxCell>
        <mxCell id="2Ql1dZGvthfYiB3fdjjj-8" value="End" style="ellipse;whiteSpace=wrap;html=1;" vertex="1" parent="1">
          <mxGeometry x="120" y="620" width="120" height="80" as="geometry" />
        </mxCell>
        <mxCell id="2Ql1dZGvthfYiB3fdjjj-12" style="edgeStyle=orthogonalEdgeStyle;rounded=0;orthogonalLoop=1;jettySize=auto;html=1;entryX=0.5;entryY=1;entryDx=0;entryDy=0;" edge="1" parent="1" source="2Ql1dZGvthfYiB3fdjjj-9" target="2Ql1dZGvthfYiB3fdjjj-10">
          <mxGeometry relative="1" as="geometry" />
        </mxCell>
        <mxCell id="2Ql1dZGvthfYiB3fdjjj-17" style="edgeStyle=orthogonalEdgeStyle;rounded=0;orthogonalLoop=1;jettySize=auto;html=1;exitX=0.5;exitY=1;exitDx=0;exitDy=0;entryX=0.5;entryY=0;entryDx=0;entryDy=0;" edge="1" parent="1" source="2Ql1dZGvthfYiB3fdjjj-9" target="2Ql1dZGvthfYiB3fdjjj-8">
          <mxGeometry relative="1" as="geometry" />
        </mxCell>
        <mxCell id="2Ql1dZGvthfYiB3fdjjj-9" value="If BokehJS&lt;div&gt;Callback&lt;/div&gt;" style="rhombus;whiteSpace=wrap;html=1;" vertex="1" parent="1">
          <mxGeometry x="140" y="520" width="80" height="80" as="geometry" />
        </mxCell>
        <mxCell id="2Ql1dZGvthfYiB3fdjjj-11" style="edgeStyle=orthogonalEdgeStyle;rounded=0;orthogonalLoop=1;jettySize=auto;html=1;entryX=1;entryY=0.5;entryDx=0;entryDy=0;" edge="1" parent="1" source="2Ql1dZGvthfYiB3fdjjj-10" target="2Ql1dZGvthfYiB3fdjjj-5">
          <mxGeometry relative="1" as="geometry">
            <Array as="points">
              <mxPoint x="340" y="300" />
            </Array>
          </mxGeometry>
        </mxCell>
        <mxCell id="2Ql1dZGvthfYiB3fdjjj-10" value="Python Callback" style="rounded=1;whiteSpace=wrap;html=1;" vertex="1" parent="1">
          <mxGeometry x="280" y="400" width="120" height="60" as="geometry" />
        </mxCell>
      </root>
    </mxGraphModel>
  </diagram>
</mxfile>
